<svg xmlns="http://www.w3.org/2000/svg" fill="currentColor" viewBox="0 0 14 14"><path d="M2.363 3.452c-.014-.388.045-.763.287-1.088.007.167.027.327.095.487.133-.621.445-1.113.955-1.478-.043.133-.079.266-.068.399.196-.167.424-.402 1.002-.512a2.3 2.3 0 0 1 .95.023c.869.21 1.377.774 1.573 1.632.12.521.016 1.016-.187 1.499-.117.28-.271.551-.467.792l-.131-.126-.844-.844c-.025-.027-.023-.05-.002-.081.187-.305.266-.636.226-.993-.025-.221-.097-.427-.255-.591a.83.83 0 0 0-1.207.014c-.257.282-.318.618-.246.984.005.029.009.061 0 .088-.077.309-.104.623-.056.939a.19.19 0 0 1 .002.036c0 .007-.002.011-.005.025-.492-.248-.812-.639-.975-1.178-.187.402-.251.801-.149 1.221-.352-.343-.481-.774-.497-1.246zm10.598 2.781c-.262-.262-.564-.46-.905-.6a2.05 2.05 0 0 0-.901-.16 2.41 2.41 0 0 0-.655.144 1.52 1.52 0 0 1-.174.05c-.111.027-.165-.07-.106-.153.072-.104.077-.095.339-.271l.05-.034h-.056c-.014 0-.027.005-.043.007-.436.074-.693.35-1.104.668-.235.183-.311.086-.271-.011.032-.079.074-.151.115-.226.023-.041.052-.077.079-.115-.625.402-1.07.946-1.318 1.643.007.007.016.013.023.02.007-.013.011-.027.02-.038a3.17 3.17 0 0 1 .826-.673c.411-.239.846-.413 1.325-.456.097-.009.196-.002.296-.002a.45.45 0 0 1-.12.025c-.418.054-.801.203-1.162.418-.682.404-1.23.952-1.695 1.589-.007.009-.009.02-.016.029.327.12.542.39.815.578l.036-.07c.275-.607.609-1.18 1.054-1.681.377-.424.858-.571 1.411-.451.133.029.257.099.388.153l.181-.106a2.43 2.43 0 0 1 .603-.203c.332-.07.666-.111 1.004-.029v-.011c-.011-.009-.027-.018-.038-.032zm-5.313 3.961l-.964-.803c-.018.02 0-.005-.043.068a3.21 3.21 0 0 1-.993 1.074c-.232.153-.485.266-.77.266-.487 0-.862-.214-1.115-.627-.271-.44-.3-.919-.185-1.413.176-.763.679-1.246.871-1.451-.422-.14-.745.038-1.047.314.018-.314.097-.591.266-.842-.548.239-1.036.564-1.462.991-.007-.131.122-.986.126-1.009.007-.061-.014-.12-.068-.167C1.72 7.151 1.262 7.762 1 8.503a3.76 3.76 0 0 1 .533-.366c-.187.503-.442 1.192-.176 2.282.104.429.269.831.544 1.18.065.084.142.156.214.232-.018-.169-.036-.33-.02-.506l.133.194a2.73 2.73 0 0 0 1.065.803c.564.255 1.153.3 1.758.194 1.239-.219 2.047-1.097 2.618-2.23.023-.041.014-.065-.02-.095zm3.882-1.047a1.54 1.54 0 0 0-.648-.065c.223.09.318.149.424.271.284.325.235.783-.122 1.029-.264.183-.562.237-.878.205-.027-.002-.052-.009-.068-.014.063-.084.135-.158.183-.244.212-.379.122-.95-.196-1.266-.047-.047-.104-.088-.158-.133-.007.029-.002.047.002.063.095.375-.183.731-.56.718-.172-.007-.314-.086-.442-.192l-1.32-1.09a.8.8 0 0 0-.454-.196l-.314-.02c-.133-.009-.199-.063-.235-.19l-.05-.23c-.034-.183-.14-.293-.323-.32l-.3-.034c-.293-.032-.447-.167-.51-.458-.113.248-.036.506.165.675l.311.253a.47.47 0 0 1 .178.334l.041.318c.05.239.201.415.384.566l1.117.928c.404.339.314.74.293 1.264a1.17 1.17 0 0 0 .756 1.156c.023.009.045.014.081.025-.354-.411-.228-.995.016-1.18l.02.144c.212.995 1.025 1.449 1.918 1.284.361-.065.691-.201.968-.447.045-.041.084-.092.133-.147a1.35 1.35 0 0 1-1.149-.239c.016-.007.029-.007.043-.007.481.041.916-.077 1.286-.393.44-.375.6-.968.393-1.49-.187-.454-.533-.729-.989-.878zm-8.786-3.88c-.12-.208-.298-.352-.499-.481.309-.011.6.005.894.083a1.12 1.12 0 0 1-.113-.873c.12.269.309.454.533.605.445.298.806.442 1.054.682.077.074.142.16.217.246l-.05-.135c-.113-.239-.293-.42-.51-.564-.041-.027-.063-.056-.077-.102-.074-.282-.068-.566-.016-.849.023-.124.063-.246.102-.368.018-.054.052-.104.09-.149.014.156 0 .576.442 1.038l.765.738c.203.192.413.377.576.605.025.036.05.074.086.106-.113-.293-.32-.544-.546-.763l-.659-.618a.37.37 0 0 1-.115-.246c-.027-.235 0-.465.097-.682.011-.023.025-.045.043-.075l.032.262c.108.521.46.819 1.113 1.433.226.212.436.433.578.713.108.21.165.429.129.668-.002.013.011.038.025.045.14.059.226.156.219.323.174-.059.282-.181.37-.327.095.456-.205 1.135-.614 1.325.009-.102.113-.528-.372-.625-.153-.029-.289-.029-.517-.047.106-.203.235-.465.011-.506-.562-.104-1.192.043-1.304.104.185.009.368.023.53.074l-.131.427c-.043.147.047.33.21.217l.074-.061-.063.413c.007.23.214.176.354.165-.056.266-.666.616-1.025.582.158-.106.287-.232.359-.404l-.433.054-.007-.02c.106-.077.181-.176.23-.296.196-.476-.081-.858-.564-.901-.205-.018-.402.018-.585.124.14-.352.388-.6.736-.779l-.555-.142c.33-.21.682-.298 1.049-.33-.117-.072-1.086-.081-1.584.472l.524.095c-.537.158-.993.445-1.408.803.025-.108.061-.214.074-.323a1.08 1.08 0 0 0 .002-.307c-.034-.212-.201-.341-.445-.368-.178-.02-.352.002-.526.029-.02.002-.038.007-.065 0 .357-.334.812-.49 1.198-.756.135-.102.153-.185.068-.336zm2.898.605c.074.361.284.576.537.548-.104-.255-.273-.44-.537-.548z"/></svg>
