<svg width="32" height="32" viewBox="0 0 32 32" fill="none" xmlns="http://www.w3.org/2000/svg">
<path d="M5.73072 13.0947C6.01472 13.0187 6.36139 13.0187 7.05472 13.0187H24.9427C25.6361 13.0187 25.9827 13.0187 26.2667 13.0947C26.6457 13.1966 26.9913 13.3964 27.2689 13.6739C27.5464 13.9514 27.7461 14.297 27.8481 14.676C28.0481 15.4253 28.0481 16.5747 27.8481 17.324C27.7461 17.703 27.5464 18.0486 27.2689 18.3261C26.9913 18.6037 26.6457 18.8034 26.2667 18.9053C25.9827 18.9813 25.6361 18.9813 24.9427 18.9813H7.05472C6.36139 18.9813 6.01472 18.9813 5.73072 18.9053C4.95872 18.6973 4.35606 18.096 4.14939 17.324C3.94939 16.576 3.94939 15.4253 4.14939 14.676C4.25133 14.297 4.45107 13.9514 4.7286 13.6739C5.00613 13.3964 5.35171 13.1966 5.73072 13.0947Z" stroke="currentColor" stroke-width="2" stroke-linecap="round" stroke-linejoin="round"/>
</svg>
