<svg xmlns="http://www.w3.org/2000/svg" viewBox="0 0 512 512"><path d="M0 0h512v512H0z"/><path d="M77.492 18.457l-17.726 3.127L69.09 74.47a1630.67 1630.67 0 0 0-15.8 2.54l-6.503-36.89-17.726 3.124 6.49 36.795a1877.847 1877.847 0 0 0-17.196 3.112l3.292 17.696 17.028-3.084 7.056 40.02 17.727-3.124-7.04-39.93 15.798-2.54 9.777 55.45 17.727-3.126-9.697-54.99 25.18-3.38c15.54 46.39 34.697 99.995 66.936 134.448C190.86 250.992 192 268 214.56 310 192 348 176 412 167.21 471l-48 6v15H192c16-48 64-144 64-144s48 96 64 144h72.79v-15l-48-6C336 412 320 348 294 310c26-42 24.175-59.585 35.83-89.377 32.25-34.452 51.42-88.075 66.967-134.478l25.18 3.38-9.696 54.99 17.728 3.124 9.777-55.45 15.8 2.54-7.042 39.93 17.727 3.125 7.056-40.02 17.028 3.083 3.292-17.696-17.195-3.113 6.49-36.796-17.727-3.125-6.504 36.89-15.8-2.54 9.324-52.886-17.726-3.127-9.406 53.35C365.982 63.31 310.982 59.04 256 59.04S146.017 63.31 86.898 71.807l-9.406-53.35zM256 76.98c35.53 0 71.07 1.83 107.822 5.463-14.082 34.858-38.454 73.504-63.203 101.967C290.293 199.27 274.35 209 256 209s-34.294-9.73-44.62-24.59c-24.748-28.463-49.12-67.11-63.202-101.967 36.75-3.633 72.29-5.463 107.822-5.463zM256 97c-20.835 0-39 20.24-39 47s18.165 47 39 47 39-20.24 39-47-18.165-47-39-47z" fill="#fff"/></svg>
